<svg width="258" height="45" viewBox="0 0 258 45" fill="none" xmlns="http://www.w3.org/2000/svg">
<path d="M54.1728 33.9491L41.1348 20.8391L38.0758 17.7801V17.4631L50.6998 4.98711C53.2198 2.52811 49.0718 -1.58289 46.5768 0.815113L38.0928 9.21511L38.1058 2.29712C37.8898 -0.300885 34.8988 -0.783885 32.1338 2.29712C30.1968 4.23312 28.2598 6.17011 26.3238 8.10711L2.64584 31.9161C-0.605163 35.1811 0.900838 37.6851 2.91184 37.7251L26.3238 37.6241C30.2388 37.6781 30.3238 31.8241 26.2168 31.8981C19.3778 31.9451 16.2418 25.9191 26.3238 14.1601C31.2168 8.54111 32.1578 10.4221 32.2928 12.3031L32.2858 14.9641L23.3478 23.8141C20.9328 26.1841 25.0208 30.4121 27.4428 27.9721L32.2638 23.2081L32.2248 37.6781C32.2058 41.9061 38.0758 41.9261 38.0368 37.6781L38.0668 22.3511C38.4048 21.8611 39.2198 21.9731 41.1348 24.1721C46.6868 30.6471 44.9598 33.9641 41.1938 33.9391C38.9318 33.8981 38.9788 37.1211 41.1348 37.0911L54.0258 37.1471C55.1328 37.1251 55.9628 35.7461 54.1728 33.9491ZM16.3218 36.1561L12.7898 33.1041L9.60184 36.0491C8.89084 36.2251 8.44184 35.7091 8.64984 34.9951L11.9168 32.3501L8.63384 29.5141C7.82984 29.7501 7.55084 30.6781 7.23884 31.3411C6.92184 29.4101 8.75384 27.1161 10.5048 26.8311C9.62884 27.5551 9.18084 28.2961 9.15884 28.8731L12.5888 31.8071L16.3958 28.7241L15.2968 27.2751L17.1508 25.7781L19.3828 28.9051L18.1688 30.9461L16.8888 29.3171L13.4228 32.5201L16.8558 35.4561C17.0008 35.8871 16.7518 36.2111 16.3218 36.1561Z" fill="url(#paint0_linear)"/>
<path d="M70.8 37.07C70.6667 37.07 70.51 37.0533 70.33 37.02C70.1567 36.9933 70.01 36.9433 69.89 36.87L69.98 35.93C70.0733 35.97 70.1867 36.0067 70.32 36.04C70.4533 36.0733 70.5833 36.09 70.71 36.09C70.9233 36.09 71.11 36.03 71.27 35.91C71.43 35.7833 71.58 35.5433 71.72 35.19L69.13 29.9H70.34L72.24 34.01L74.03 29.9H75.21L72.71 35.3C72.5633 35.62 72.42 35.8933 72.28 36.12C72.1467 36.34 72.0033 36.5233 71.85 36.67C71.7033 36.81 71.5433 36.9133 71.37 36.98C71.2033 37.04 71.0133 37.07 70.8 37.07ZM76.1091 29.9H81.8691V37H80.7391V30.89H77.2391V37H76.1091V29.9ZM83.5114 37V29.9H86.4914C86.8114 29.9 87.1047 29.9667 87.3714 30.1C87.6447 30.2333 87.8781 30.41 88.0714 30.63C88.2647 30.8433 88.4147 31.09 88.5214 31.37C88.6347 31.6433 88.6914 31.9233 88.6914 32.21C88.6914 32.51 88.6381 32.8 88.5314 33.08C88.4314 33.3533 88.2881 33.6 88.1014 33.82C87.9147 34.0333 87.6881 34.2067 87.4214 34.34C87.1614 34.4667 86.8714 34.53 86.5514 34.53H84.6314V37H83.5114ZM84.6314 33.54H86.4814C86.6414 33.54 86.7847 33.5067 86.9114 33.44C87.0447 33.3733 87.1581 33.28 87.2514 33.16C87.3447 33.04 87.4181 32.9 87.4714 32.74C87.5247 32.58 87.5514 32.4033 87.5514 32.21C87.5514 32.01 87.5214 31.83 87.4614 31.67C87.4014 31.51 87.3181 31.3733 87.2114 31.26C87.1047 31.14 86.9814 31.05 86.8414 30.99C86.7081 30.9233 86.5681 30.89 86.4214 30.89H84.6314V33.54ZM91.3822 29.9H92.3622L95.1622 37H93.9822L93.2322 35.07H90.4922L89.7522 37H88.5622L91.3822 29.9ZM93.0122 34.24L91.8722 31.19L90.6922 34.24H93.0122ZM101.49 35.17C101.49 35.4567 101.43 35.7133 101.31 35.94C101.197 36.1667 101.04 36.36 100.84 36.52C100.647 36.6733 100.417 36.7933 100.15 36.88C99.8836 36.96 99.6002 37 99.3002 37H95.9102V29.9H99.5702C99.8169 29.9 100.04 29.9533 100.24 30.06C100.44 30.1667 100.61 30.3067 100.75 30.48C100.89 30.6467 100.997 30.84 101.07 31.06C101.15 31.2733 101.19 31.49 101.19 31.71C101.19 32.0567 101.1 32.3833 100.92 32.69C100.747 32.99 100.497 33.2133 100.17 33.36C100.577 33.48 100.897 33.7 101.13 34.02C101.37 34.3333 101.49 34.7167 101.49 35.17ZM100.34 34.96C100.34 34.8133 100.314 34.6733 100.26 34.54C100.214 34.4067 100.147 34.29 100.06 34.19C99.9802 34.09 99.8802 34.01 99.7602 33.95C99.6402 33.89 99.5102 33.86 99.3702 33.86H97.0302V36.03H99.3002C99.4469 36.03 99.5836 36.0033 99.7102 35.95C99.8369 35.89 99.9469 35.8133 100.04 35.72C100.134 35.62 100.207 35.5067 100.26 35.38C100.314 35.2467 100.34 35.1067 100.34 34.96ZM97.0302 30.87V32.96H99.0902C99.2302 32.96 99.3569 32.9333 99.4702 32.88C99.5902 32.8267 99.6936 32.7567 99.7802 32.67C99.8736 32.5767 99.9436 32.4667 99.9902 32.34C100.044 32.2133 100.07 32.0733 100.07 31.92C100.07 31.6133 99.9836 31.3633 99.8102 31.17C99.6369 30.97 99.4169 30.87 99.1502 30.87H97.0302ZM104.682 32.03C104.608 32.9367 104.508 33.71 104.382 34.35C104.262 34.99 104.098 35.5133 103.892 35.92C103.685 36.32 103.432 36.6133 103.132 36.8C102.832 36.98 102.472 37.07 102.052 37.07L101.922 36.03C102.142 36.0167 102.338 35.96 102.512 35.86C102.685 35.76 102.835 35.5633 102.962 35.27C103.095 34.9767 103.212 34.56 103.312 34.02C103.412 33.48 103.498 32.7633 103.572 31.87L103.742 29.9H107.762V37H106.632V30.89H104.772L104.682 32.03ZM113.11 37V34.31H111.72L110.1 37H108.83L110.57 34.17C110.37 34.09 110.183 33.9833 110.01 33.85C109.843 33.71 109.697 33.55 109.57 33.37C109.45 33.19 109.357 32.9933 109.29 32.78C109.223 32.5667 109.19 32.34 109.19 32.1C109.19 31.82 109.243 31.5467 109.35 31.28C109.463 31.0133 109.617 30.78 109.81 30.58C110.003 30.3733 110.233 30.21 110.5 30.09C110.773 29.9633 111.07 29.9 111.39 29.9H114.24V37H113.11ZM113.11 30.88H111.49C111.337 30.88 111.19 30.91 111.05 30.97C110.91 31.03 110.787 31.1167 110.68 31.23C110.573 31.3367 110.487 31.4667 110.42 31.62C110.36 31.7667 110.33 31.9267 110.33 32.1C110.33 32.2733 110.357 32.4333 110.41 32.58C110.463 32.7267 110.54 32.8567 110.64 32.97C110.74 33.0767 110.857 33.1633 110.99 33.23C111.13 33.29 111.28 33.32 111.44 33.32H113.11V30.88ZM121.364 37.05C120.924 37.05 120.521 36.9733 120.154 36.82C119.788 36.6667 119.464 36.4533 119.184 36.18C118.911 35.9 118.688 35.57 118.514 35.19C118.348 34.8033 118.244 34.3767 118.204 33.91H117.024V37H115.894V29.9H117.024V32.92H118.214C118.261 32.4533 118.374 32.03 118.554 31.65C118.734 31.27 118.964 30.9467 119.244 30.68C119.524 30.4133 119.848 30.21 120.214 30.07C120.581 29.9233 120.974 29.85 121.394 29.85C121.881 29.85 122.321 29.9433 122.714 30.13C123.114 30.31 123.458 30.5633 123.744 30.89C124.031 31.21 124.251 31.59 124.404 32.03C124.564 32.47 124.644 32.9467 124.644 33.46C124.644 34.0067 124.561 34.5033 124.394 34.95C124.234 35.39 124.008 35.7667 123.714 36.08C123.421 36.3867 123.074 36.6267 122.674 36.8C122.274 36.9667 121.838 37.05 121.364 37.05ZM119.324 33.45C119.324 34.2633 119.508 34.9 119.874 35.36C120.241 35.8133 120.741 36.04 121.374 36.04C121.714 36.04 122.014 35.98 122.274 35.86C122.541 35.7333 122.764 35.5567 122.944 35.33C123.124 35.1033 123.261 34.83 123.354 34.51C123.454 34.19 123.504 33.8367 123.504 33.45C123.504 33.0433 123.454 32.68 123.354 32.36C123.254 32.04 123.111 31.77 122.924 31.55C122.738 31.33 122.511 31.1633 122.244 31.05C121.984 30.93 121.694 30.87 121.374 30.87C121.054 30.87 120.764 30.9333 120.504 31.06C120.251 31.18 120.038 31.3533 119.864 31.58C119.691 31.8 119.558 32.07 119.464 32.39C119.371 32.71 119.324 33.0633 119.324 33.45ZM133.895 37H125.855V29.9H126.985V36.01H129.295V29.9H130.415V36.01H132.735V29.9H133.855V36.01H134.925V38.82H133.895V37ZM138.003 29.9H138.983L141.783 37H140.603L139.853 35.07H137.113L136.373 37H135.183L138.003 29.9ZM139.633 34.24L138.493 31.19L137.313 34.24H139.633ZM146.391 37V34.31H145.001L143.381 37H142.111L143.851 34.17C143.651 34.09 143.465 33.9833 143.291 33.85C143.125 33.71 142.978 33.55 142.851 33.37C142.731 33.19 142.638 32.9933 142.571 32.78C142.505 32.5667 142.471 32.34 142.471 32.1C142.471 31.82 142.525 31.5467 142.631 31.28C142.745 31.0133 142.898 30.78 143.091 30.58C143.285 30.3733 143.515 30.21 143.781 30.09C144.055 29.9633 144.351 29.9 144.671 29.9H147.521V37H146.391ZM146.391 30.88H144.771C144.618 30.88 144.471 30.91 144.331 30.97C144.191 31.03 144.068 31.1167 143.961 31.23C143.855 31.3367 143.768 31.4667 143.701 31.62C143.641 31.7667 143.611 31.9267 143.611 32.1C143.611 32.2733 143.638 32.4333 143.691 32.58C143.745 32.7267 143.821 32.8567 143.921 32.97C144.021 33.0767 144.138 33.1633 144.271 33.23C144.411 33.29 144.561 33.32 144.721 33.32H146.391V30.88ZM152.766 32.91H153.506L155.756 29.9H157.036L154.496 33.33L157.266 37H155.986L153.616 33.92H152.766V37H151.636V29.9H152.766V32.91ZM160.651 37.05C160.144 37.05 159.681 36.95 159.261 36.75C158.847 36.5433 158.491 36.2733 158.191 35.94C157.891 35.6 157.657 35.2133 157.491 34.78C157.331 34.3467 157.251 33.9033 157.251 33.45C157.251 32.9767 157.337 32.5233 157.511 32.09C157.684 31.6567 157.921 31.2733 158.221 30.94C158.527 30.6067 158.887 30.3433 159.301 30.15C159.721 29.95 160.177 29.85 160.671 29.85C161.177 29.85 161.637 29.9567 162.051 30.17C162.471 30.3767 162.827 30.65 163.121 30.99C163.421 31.33 163.651 31.7167 163.811 32.15C163.977 32.5767 164.061 33.0133 164.061 33.46C164.061 33.9333 163.974 34.3867 163.801 34.82C163.634 35.2533 163.397 35.6367 163.091 35.97C162.784 36.2967 162.421 36.56 162.001 36.76C161.587 36.9533 161.137 37.05 160.651 37.05ZM158.391 33.45C158.391 33.7833 158.444 34.1067 158.551 34.42C158.657 34.7333 158.807 35.01 159.001 35.25C159.201 35.49 159.441 35.6833 159.721 35.83C160.001 35.97 160.314 36.04 160.661 36.04C161.021 36.04 161.337 35.9667 161.611 35.82C161.891 35.6667 162.127 35.4667 162.321 35.22C162.514 34.9733 162.661 34.6967 162.761 34.39C162.861 34.0833 162.911 33.77 162.911 33.45C162.911 33.11 162.857 32.7867 162.751 32.48C162.644 32.1667 162.491 31.8933 162.291 31.66C162.097 31.42 161.861 31.23 161.581 31.09C161.307 30.9433 161.001 30.87 160.661 30.87C160.301 30.87 159.981 30.9467 159.701 31.1C159.421 31.2467 159.184 31.44 158.991 31.68C158.797 31.92 158.647 32.1967 158.541 32.51C158.441 32.8167 158.391 33.13 158.391 33.45ZM171.2 37V31.89L169.09 35.76H168.47L166.35 31.89V37H165.23V29.9H166.43L168.78 34.24L171.13 29.9H172.33V37H171.2ZM173.98 29.9H179.74V37H178.61V30.89H175.11V37H173.98V29.9ZM183.453 29.9H184.433L187.233 37H186.053L185.303 35.07H182.563L181.823 37H180.633L183.453 29.9ZM185.083 34.24L183.943 31.19L182.763 34.24H185.083ZM193.961 29.9V37H192.831V33.87H189.251V37H188.131V29.9H189.251V32.87H192.831V29.9H193.961ZM196.741 35.27L200.611 29.9H201.501V37H200.371V31.73L196.561 37H195.611V29.9H196.741V35.27ZM206.85 37V34.31H205.46L203.84 37H202.57L204.31 34.17C204.11 34.09 203.924 33.9833 203.75 33.85C203.584 33.71 203.437 33.55 203.31 33.37C203.19 33.19 203.097 32.9933 203.03 32.78C202.964 32.5667 202.93 32.34 202.93 32.1C202.93 31.82 202.984 31.5467 203.09 31.28C203.204 31.0133 203.357 30.78 203.55 30.58C203.744 30.3733 203.974 30.21 204.24 30.09C204.514 29.9633 204.81 29.9 205.13 29.9H207.98V37H206.85ZM206.85 30.88H205.23C205.077 30.88 204.93 30.91 204.79 30.97C204.65 31.03 204.527 31.1167 204.42 31.23C204.314 31.3367 204.227 31.4667 204.16 31.62C204.1 31.7667 204.07 31.9267 204.07 32.1C204.07 32.2733 204.097 32.4333 204.15 32.58C204.204 32.7267 204.28 32.8567 204.38 32.97C204.48 33.0767 204.597 33.1633 204.73 33.23C204.87 33.29 205.02 33.32 205.18 33.32H206.85V30.88Z" fill="#979797"/>
<path d="M69.36 17.02H69.68C70.08 16.9933 70.44 16.8733 70.76 16.66C71.0933 16.4467 71.3867 16.0467 71.64 15.46C71.9067 14.86 72.1333 14.0267 72.32 12.96C72.52 11.8933 72.6933 10.4867 72.84 8.74L73.16 4.8H81.2V17.02H83.36V22.64H81.28V19H71.42V22.64H69.36V17.02ZM78.96 17.02V6.78H75.24L75.04 9.06C74.9467 10.1267 74.84 11.0867 74.72 11.94C74.6 12.78 74.4533 13.5267 74.28 14.18C74.1067 14.82 73.9133 15.3733 73.7 15.84C73.4867 16.3067 73.2467 16.7 72.98 17.02H78.96ZM91.1489 19.1C90.1356 19.1 89.2089 18.9 88.3689 18.5C87.5422 18.0867 86.8289 17.5467 86.2289 16.88C85.6289 16.2 85.1622 15.4267 84.8289 14.56C84.5089 13.6933 84.3489 12.8067 84.3489 11.9C84.3489 10.9533 84.5222 10.0467 84.8689 9.18C85.2156 8.31333 85.6889 7.54667 86.2889 6.88C86.9022 6.21333 87.6222 5.68667 88.4489 5.3C89.2889 4.9 90.2022 4.7 91.1889 4.7C92.2022 4.7 93.1222 4.91333 93.9489 5.34C94.7889 5.75333 95.5022 6.3 96.0889 6.98C96.6889 7.66 97.1489 8.43333 97.4689 9.3C97.8022 10.1533 97.9689 11.0267 97.9689 11.92C97.9689 12.8667 97.7956 13.7733 97.4489 14.64C97.1156 15.5067 96.6422 16.2733 96.0289 16.94C95.4156 17.5933 94.6889 18.12 93.8489 18.52C93.0222 18.9067 92.1222 19.1 91.1489 19.1ZM86.6289 11.9C86.6289 12.5667 86.7356 13.2133 86.9489 13.84C87.1622 14.4667 87.4622 15.02 87.8489 15.5C88.2489 15.98 88.7289 16.3667 89.2889 16.66C89.8489 16.94 90.4756 17.08 91.1689 17.08C91.8889 17.08 92.5222 16.9333 93.0689 16.64C93.6289 16.3333 94.1022 15.9333 94.4889 15.44C94.8756 14.9467 95.1689 14.3933 95.3689 13.78C95.5689 13.1667 95.6689 12.54 95.6689 11.9C95.6689 11.22 95.5622 10.5733 95.3489 9.96C95.1356 9.33333 94.8289 8.78667 94.4289 8.32C94.0422 7.84 93.5689 7.46 93.0089 7.18C92.4622 6.88667 91.8489 6.74 91.1689 6.74C90.4489 6.74 89.8089 6.89333 89.2489 7.2C88.6889 7.49333 88.2156 7.88 87.8289 8.36C87.4422 8.84 87.1422 9.39333 86.9289 10.02C86.7289 10.6333 86.6289 11.26 86.6289 11.9ZM111.968 4.8V19H109.708V12.74H102.548V19H100.308V4.8H102.548V10.74H109.708V4.8H111.968ZM114.329 11.8C114.329 10.9467 114.482 10.1 114.789 9.26C115.096 8.40667 115.542 7.64667 116.129 6.98C116.729 6.3 117.456 5.75333 118.309 5.34C119.162 4.92667 120.129 4.72 121.209 4.72C122.502 4.72 123.609 5.00667 124.529 5.58C125.449 6.15333 126.142 6.9 126.609 7.82L124.849 9C124.649 8.57333 124.409 8.21333 124.129 7.92C123.849 7.62667 123.542 7.39333 123.209 7.22C122.876 7.04667 122.529 6.92667 122.169 6.86C121.809 6.78 121.462 6.74 121.129 6.74C120.382 6.74 119.729 6.89333 119.169 7.2C118.609 7.49333 118.136 7.88667 117.749 8.38C117.376 8.87333 117.089 9.42667 116.889 10.04C116.702 10.6533 116.609 11.2667 116.609 11.88C116.609 12.5733 116.722 13.2333 116.949 13.86C117.176 14.4867 117.489 15.04 117.889 15.52C118.302 16 118.789 16.3867 119.349 16.68C119.909 16.96 120.522 17.1 121.189 17.1C121.536 17.1 121.889 17.06 122.249 16.98C122.622 16.8867 122.976 16.7467 123.309 16.56C123.656 16.36 123.969 16.1133 124.249 15.82C124.542 15.5267 124.782 15.1733 124.969 14.76L126.829 15.82C126.602 16.3533 126.282 16.8267 125.869 17.24C125.456 17.64 124.989 17.98 124.469 18.26C123.949 18.54 123.396 18.7533 122.809 18.9C122.236 19.0467 121.669 19.12 121.109 19.12C120.109 19.12 119.196 18.9067 118.369 18.48C117.542 18.0533 116.829 17.5 116.229 16.82C115.629 16.1267 115.162 15.3467 114.829 14.48C114.496 13.6 114.329 12.7067 114.329 11.8ZM131.181 10.82H132.661L137.161 4.8H139.721L134.641 11.66L140.181 19H137.621L132.881 12.84H131.181V19H128.921V4.8H131.181V10.82ZM146.95 19.1C145.936 19.1 145.01 18.9 144.17 18.5C143.343 18.0867 142.63 17.5467 142.03 16.88C141.43 16.2 140.963 15.4267 140.63 14.56C140.31 13.6933 140.15 12.8067 140.15 11.9C140.15 10.9533 140.323 10.0467 140.67 9.18C141.016 8.31333 141.49 7.54667 142.09 6.88C142.703 6.21333 143.423 5.68667 144.25 5.3C145.09 4.9 146.003 4.7 146.99 4.7C148.003 4.7 148.923 4.91333 149.75 5.34C150.59 5.75333 151.303 6.3 151.89 6.98C152.49 7.66 152.95 8.43333 153.27 9.3C153.603 10.1533 153.77 11.0267 153.77 11.92C153.77 12.8667 153.596 13.7733 153.25 14.64C152.916 15.5067 152.443 16.2733 151.83 16.94C151.216 17.5933 150.49 18.12 149.65 18.52C148.823 18.9067 147.923 19.1 146.95 19.1ZM142.43 11.9C142.43 12.5667 142.536 13.2133 142.75 13.84C142.963 14.4667 143.263 15.02 143.65 15.5C144.05 15.98 144.53 16.3667 145.09 16.66C145.65 16.94 146.276 17.08 146.97 17.08C147.69 17.08 148.323 16.9333 148.87 16.64C149.43 16.3333 149.903 15.9333 150.29 15.44C150.676 14.9467 150.97 14.3933 151.17 13.78C151.37 13.1667 151.47 12.54 151.47 11.9C151.47 11.22 151.363 10.5733 151.15 9.96C150.936 9.33333 150.63 8.78667 150.23 8.32C149.843 7.84 149.37 7.46 148.81 7.18C148.263 6.88667 147.65 6.74 146.97 6.74C146.25 6.74 145.61 6.89333 145.05 7.2C144.49 7.49333 144.016 7.88 143.63 8.36C143.243 8.84 142.943 9.39333 142.73 10.02C142.53 10.6333 142.43 11.26 142.43 11.9ZM165.609 0.679999C165.595 1.48 165.289 2.10667 164.689 2.56C164.089 3 163.302 3.22 162.329 3.22C161.369 3.22 160.582 2.99333 159.969 2.54C159.369 2.08667 159.062 1.46667 159.049 0.679999H160.389C160.389 1.04 160.575 1.35333 160.949 1.62C161.335 1.87333 161.802 2 162.349 2C162.855 2 163.289 1.88 163.649 1.64C164.009 1.38667 164.222 1.06667 164.289 0.679999H165.609ZM158.369 15.54L166.109 4.8H167.889V19H165.629V8.46L158.009 19H156.109V4.8H158.369V15.54ZM178.369 10.82H179.849L184.349 4.8H186.909L181.829 11.66L187.369 19H184.809L180.069 12.84H178.369V19H176.109V4.8H178.369V10.82ZM192.983 4.8H194.943L200.543 19H198.183L196.683 15.14H191.203L189.723 19H187.343L192.983 4.8ZM196.243 13.48L193.963 7.38L191.603 13.48H196.243ZM214.279 19V8.78L210.059 16.52H208.819L204.579 8.78V19H202.339V4.8H204.739L209.439 13.48L214.139 4.8H216.539V19H214.279ZM229.579 17.02V19H219.839V4.8H229.399V6.78H222.079V10.82H228.419V12.68H222.079V17.02H229.579ZM243.609 4.8V19H241.349V12.74H234.189V19H231.949V4.8H234.189V10.74H241.349V4.8H243.609ZM246.91 4.8H249.17V9.92H252.05C252.743 9.92 253.383 10.02 253.97 10.22C254.57 10.42 255.083 10.7133 255.51 11.1C255.936 11.4733 256.27 11.94 256.51 12.5C256.763 13.06 256.89 13.7067 256.89 14.44C256.89 15.1867 256.763 15.8467 256.51 16.42C256.27 16.98 255.93 17.4533 255.49 17.84C255.063 18.2133 254.556 18.5 253.97 18.7C253.396 18.9 252.77 19 252.09 19H246.91V4.8ZM249.17 17.06H251.97C252.85 17.06 253.51 16.8267 253.95 16.36C254.39 15.88 254.61 15.24 254.61 14.44C254.61 13.64 254.383 13 253.93 12.52C253.476 12.04 252.823 11.8 251.97 11.8H249.17V17.06Z" fill="#090B2A"/>
<defs>
<linearGradient id="paint0_linear" x1="0.751954" y1="26.5525" x2="49.8174" y2="42.8267" gradientUnits="userSpaceOnUse">
<stop stop-color="#009FD3"/>
<stop offset="1" stop-color="#090826"/>
</linearGradient>
</defs>
</svg>
